# xmcd
#
# Track frame offsets:
#	150
#	11660
#	23639
#	37068
#	51260
#	63455
#	76113
#	91395
#	103114
#	112079
#	122854
#	138274
#	150144
#	163960
#	175303
#	184444
#	195188
#	213993
#
# Disc length: 2980 seconds
#
# Revision: 1
# Processed by: cddbd v1.5.2PL0 Copyright (c) Steve Scherf et al.
# Submitted via: EasyCDDAExtractor 16.0.1.1
#
DISCID=f20ba212
DTITLE=Get Your Kicks On Route 66 - Songs For The Road - CD 3
DYEAR=1900
DGENRE=
TTITLE0=Willy Nelson - On The Road Again
TTITLE1=Telly Savalas - Some Broken Hearts Never Mend
TTITLE2=Jim Croce - Bad Bad Leroy Brown
TTITLE3=Chicory Tip - Son Of My Father
TTITLE4=The Pearls - You Came, You Saw, You Conquered
TTITLE5=Neil Christian - That's Nice
TTITLE6=Don Fardon - Indian Reservation
TTITLE7=Tennessee Ernie Ford - Sixteen Tons
TTITLE8=The Everly Brothers - Wake Up Little Susie
TTITLE9=Ireen Sheer - Big Yellow Taxi
TTITLE10=Shabby Tiger - Slow Down
TTITLE11=5.000 Volts - I'm On Fire
TTITLE12=Jesse Green - Nice 'n Slow
TTITLE13=Ricky Nelson - Poor Little Fool
TTITLE14=Elvis Presley - Don't Be Cruel
TTITLE15=The Scorpions - Hello Josephine
TTITLE16=Clout - Save Me
TTITLE17=Perez Prado - Patricia
EXTD=
EXTT0=
EXTT1=
EXTT2=
EXTT3=
EXTT4=
EXTT5=
EXTT6=
EXTT7=
EXTT8=
EXTT9=
EXTT10=
EXTT11=
EXTT12=
EXTT13=
EXTT14=
EXTT15=
EXTT16=
EXTT17=
PLAYORDER=
